<?xml version="1.0" encoding="utf-8"?>
<svg version="1.0" width="1089.000000pt" height="1280.000000pt" viewBox="0 0 1089.000000 1280.000000" preserveAspectRatio="xMidYMid meet" xmlns="http://www.w3.org/2000/svg" xmlns:bx="https://boxy-svg.com">
  <g transform="matrix(-0.010525, -0.084938, -0.080918, 0.010027, 1917.568604, 972.026001)" fill="#000000" stroke="none" style="" bx:origin="0.512 0.486">
    <path d="M2062 12784 c-69 -35 -88 -96 -66 -211 12 -65 13 -91 4 -125 -13 -46 -53 -109 -94 -147 -49 -46 -26 -42 87 16 187 95 250 173 251 307 0 74 -14 115 -52 149 -29 26 -90 31 -130 11z"/>
    <path d="M1685 12476 c-16 -7 -39 -23 -50 -36 -21 -23 -22 -43 -13 -205 2 -51 -2 -68 -24 -105 -14 -25 -38 -56 -52 -69 -44 -41 -29 -43 47 -5 184 93 237 154 237 277 0 83 -19 123 -65 143 -41 17 -42 17 -80 0z"/>
    <path d="M 2975 12463 C 2822 12408 2712 12286 2694 12149 L 2688 12102 L 2556 12096 C 2107 12072 1691 11987 1398 11857 L 1345 11833 L 1312 11899 C 1269 11987 1205 12058 1115 12118 C 1005 12192 929 12215 795 12215 C 695 12215 680 12212 628 12187 C 509 12129 440 12023 432 11891 C 425 11757 485 11649 598 11593 C 645 11570 667 11565 725 11566 C 802 11567 839 11581 882 11627 C 961 11710 958 11884 876 11960 C 855 11979 836 11985 787 11988 C 670 11995 610 11946 610 11843 C 610 11780 624 11740 646 11740 C 659 11740 661 11745 655 11763 C 651 11775 645 11808 643 11836 C 639 11882 641 11891 667 11920 C 692 11948 705 11954 752 11958 C 826 11964 865 11943 892 11883 C 929 11800 902 11675 837 11627 C 803 11601 726 11589 668 11602 C 461 11645 392 11919 545 12088 C 651 12206 848 12222 1038 12129 C 1149 12075 1284 11929 1304 11840 C 1309 11818 1305 11813 1273 11798 C 1130 11733 937 11596 809 11470 C 616 11279 497 11071 432 10811 C 409 10717 406 10684 406 10530 C 405 10337 418 10255 472 10100 C 511 9991 549 9915 617 9812 C 677 9721 804 9582 879 9525 C 921 9492 929 9481 940 9431 C 947 9400 955 9370 957 9363 C 959 9357 934 9337 901 9319 C 819 9276 721 9184 686 9119 C 670 9089 637 9044 612 9018 C 586 8991 571 8970 576 8970 C 582 8970 595 8979 605 8990 C 631 9019 640 9015 629 8978 C 615 8932 615 8776 629 8705 C 636 8672 652 8610 666 8567 L 691 8488 L 650 8435 C 599 8369 588 8333 603 8283 C 626 8208 746 8121 849 8104 C 889 8098 894 8093 964 7986 C 1089 7797 1246 7592 1444 7360 C 1592 7187 1640 7052 1620 6870 C 1606 6741 1579 6645 1525 6535 C 1394 6264 1190 6121 935 6120 C 691 6120 497 6269 450 6494 C 421 6635 508 6798 649 6867 C 697 6891 717 6895 790 6895 C 887 6894 937 6875 1003 6811 C 1054 6763 1070 6731 1070 6675 C 1070 6615 1051 6571 1000 6516 C 919 6428 811 6415 740 6485 C 692 6531 676 6569 684 6613 C 691 6651 750 6713 793 6729 C 824 6741 825 6767 794 6762 C 784 6760 757 6747 735 6732 C 646 6671 626 6591 679 6508 C 744 6406 846 6379 952 6437 C 1036 6483 1110 6599 1110 6685 C 1110 6727 1058 6811 1009 6850 C 861 6967 663 6954 528 6819 C 438 6729 396 6600 419 6488 C 456 6306 593 6161 779 6106 C 848 6086 1015 6085 1090 6105 C 1297 6160 1483 6339 1580 6578 C 1624 6687 1651 6808 1653 6913 C 1654 6966 1658 7006 1661 7002 C 1672 6990 1758 6736 1784 6637 C 1852 6382 1875 6103 1851 5829 C 1833 5627 1845 5650 1707 5558 C 1574 5470 1491 5428 1400 5405 C 1331 5387 1330 5387 1330 5401 C 1330 5424 1269 5498 1236 5514 C 1193 5534 1118 5535 1078 5514 C 1053 5501 1046 5500 1039 5512 C 1025 5533 1029 5550 1046 5550 C 1055 5550 1077 5565 1096 5584 C 1124 5612 1130 5625 1130 5662 C 1130 5720 1110 5746 1042 5776 C 946 5818 907 5865 865 5990 L 843 6055 L 815 6012 C 792 5977 787 5958 787 5911 C 787 5862 794 5839 828 5771 C 870 5689 872 5667 839 5649 C 808 5633 769 5658 753 5704 C 726 5784 676 5814 575 5813 C 514 5813 494 5808 419 5771 C 371 5749 319 5730 303 5730 C 258 5730 257 5721 295 5679 C 314 5658 341 5617 356 5588 C 440 5421 513 5382 650 5430 C 716 5453 753 5455 770 5435 C 795 5405 772 5382 691 5355 C 598 5324 559 5290 530 5214 C 510 5160 504 5120 516 5120 C 520 5120 563 5138 613 5161 C 726 5212 754 5216 815 5195 C 940 5153 1041 5239 997 5350 C 984 5384 984 5389 997 5394 C 1022 5404 1029 5401 1045 5370 C 1084 5295 1183 5279 1286 5329 C 1318 5345 1373 5365 1407 5374 C 1497 5396 1580 5437 1713 5523 C 1812 5588 1830 5596 1826 5577 C 1823 5565 1818 5528 1815 5495 C 1806 5408 1773 5283 1745 5223 C 1710 5152 1671 5120 1480 5006 C 1313 4905 1140 4785 1140 4770 C 1140 4746 1165 4757 1246 4817 C 1295 4853 1403 4923 1485 4972 C 1568 5021 1646 5069 1660 5078 C 1682 5094 1681 5089 1646 5025 C 1543 4838 1434 4696 1185 4420 C 907 4112 800 3976 668 3765 C 473 3454 426 3310 426 3020 C 426 2829 444 2735 510 2594 C 567 2471 619 2401 760 2261 C 897 2123 966 2078 1058 2064 C 1111 2056 1146 2034 1293 1917 C 1494 1757 1641 1601 1743 1437 C 1831 1298 1870 1189 1925 928 C 1937 876 1947 850 1956 850 C 1964 850 1970 855 1970 861 C 1970 894 1904 1167 1879 1233 C 1786 1490 1591 1727 1267 1978 C 1214 2019 1172 2056 1175 2059 C 1178 2062 1254 2067 1343 2071 C 1475 2077 1522 2083 1595 2105 C 1724 2143 1847 2212 1945 2301 C 2014 2363 2267 2385 2410 2341 C 2500 2313 2526 2301 2608 2247 C 2664 2209 2670 2202 2670 2171 C 2670 2144 2692 2103 2769 1986 C 2923 1751 2977 1634 2987 1508 C 2990 1470 2997 1440 3001 1440 C 3022 1440 3063 1514 3068 1558 C 3072 1608 3045 1707 3010 1768 C 2976 1825 3008 1802 3072 1723 C 3107 1680 3159 1619 3189 1587 C 3240 1533 3250 1528 3342 1499 C 3397 1482 3444 1470 3446 1473 C 3454 1481 3363 1661 3337 1689 C 3325 1702 3275 1745 3225 1785 C 3101 1884 3093 1896 3172 1864 C 3292 1814 3394 1822 3446 1883 L 3473 1915 L 3389 1922 C 3219 1936 3070 2000 2890 2137 C 2799 2205 2770 2222 2732 2227 C 2702 2231 2665 2247 2630 2270 C 2493 2363 2389 2395 2225 2394 C 2159 2394 2085 2388 2061 2381 C 2038 2374 2017 2370 2015 2372 C 2008 2380 2319 2749 2417 2849 C 2490 2923 2527 2967 2521 2973 C 2498 2996 2350 2840 2094 2525 C 2023 2437 1947 2348 1925 2326 C 1801 2206 1603 2119 1421 2105 L 1345 2099 L 1423 2141 C 1579 2225 1716 2385 1773 2548 C 1799 2624 1802 2644 1798 2724 C 1793 2839 1764 2906 1684 2990 C 1652 3023 1625 3048 1623 3046 C 1621 3044 1635 3010 1654 2971 C 1710 2861 1732 2765 1728 2656 C 1725 2573 1721 2556 1688 2488 C 1597 2306 1370 2177 1115 2163 C 1001 2157 970 2166 852 2243 C 613 2399 475 2644 454 2949 C 442 3135 489 3386 562 3520 C 743 3851 859 4009 1205 4395 C 1425 4639 1498 4730 1590 4870 C 1678 5005 1796 5248 1820 5345 C 1871 5555 1906 6102 1881 6307 C 1855 6515 1790 6761 1700 6989 C 1673 7058 1652 7115 1653 7117 C 1658 7122 1807 6926 1860 6845 C 1961 6690 2042 6491 2071 6330 C 2089 6225 2087 6034 2066 5925 C 2044 5813 1999 5672 1905 5426 C 1866 5321 1823 5199 1812 5155 C 1786 5059 1776 4932 1788 4870 C 1795 4831 1793 4818 1772 4775 C 1736 4704 1737 4625 1774 4572 C 1788 4551 1812 4527 1825 4520 C 1853 4505 1857 4488 1837 4472 C 1829 4465 1819 4465 1810 4470 C 1768 4497 1679 4466 1653 4417 C 1638 4387 1638 4372 1656 4265 C 1662 4225 1661 4224 1537 4080 C 1469 4000 1402 3925 1388 3912 C 1363 3889 1362 3889 1311 3906 C 1204 3941 1062 3911 972 3835 C 894 3770 871 3653 911 3526 L 931 3459 L 838 3360 C 688 3202 660 3138 660 2966 C 661 2731 770 2534 937 2469 C 1017 2438 1145 2437 1212 2468 C 1347 2529 1408 2655 1376 2811 C 1349 2937 1293 3033 1135 3219 C 1095 3266 1041 3339 1016 3380 L 969 3455 L 1025 3509 L 1081 3563 L 1106 3527 C 1138 3479 1177 3460 1241 3460 C 1390 3460 1493 3561 1476 3689 C 1468 3751 1448 3799 1415 3838 L 1390 3868 L 1462 3947 C 1502 3991 1562 4058 1595 4097 C 1628 4137 1656 4167 1657 4166 C 1665 4158 1632 4087 1594 4029 C 1570 3993 1550 3961 1550 3957 C 1550 3942 1618 3952 1666 3974 C 1722 4000 1764 4051 1801 4137 C 1836 4219 1869 4240 1903 4202 C 1926 4176 1924 4142 1895 4095 C 1829 3988 1893 3859 2052 3779 C 2095 3757 2147 3724 2168 3706 L 2206 3671 L 2218 3725 C 2225 3755 2246 3814 2265 3855 C 2314 3963 2325 4012 2311 4060 C 2296 4112 2260 4152 2188 4201 C 2126 4244 2106 4273 2122 4303 C 2137 4331 2176 4323 2245 4275 C 2351 4203 2409 4198 2517 4254 L 2563 4277 L 2529 4297 C 2510 4308 2466 4332 2431 4351 C 2353 4392 2300 4440 2300 4469 C 2300 4502 2275 4543 2235 4579 C 2206 4604 2190 4610 2155 4610 C 2116 4610 2105 4605 2070 4570 C 2048 4548 2030 4526 2030 4520 C 2030 4505 2004 4508 1991 4524 C 1981 4535 1982 4546 1995 4571 C 2006 4591 2010 4617 2007 4644 C 2004 4677 2010 4697 2036 4745 C 2173 4997 2294 5376 2341 5698 L 2352 5781 L 2391 5703 C 2433 5616 2535 5484 2603 5427 C 2683 5362 2665 5406 2573 5504 C 2426 5660 2391 5735 2325 6023 C 2301 6129 2267 6255 2250 6305 C 2177 6508 2036 6743 1861 6953 C 1811 7012 1772 7060 1775 7060 C 1777 7060 1796 7048 1817 7034 C 1888 6985 2072 6900 2194 6861 C 2318 6820 2512 6780 2581 6780 C 2619 6780 2638 6767 2666 6725 C 2677 6709 2701 6697 2748 6686 C 3080 6608 3168 6585 3253 6553 C 3364 6513 3453 6459 3523 6392 L 3570 6346 L 3570 6390 C 3570 6518 3504 6584 3297 6661 L 3245 6681 L 3350 6675 C 3408 6672 3475 6665 3500 6660 C 3525 6655 3582 6651 3628 6650 C 3709 6650 3713 6651 3826 6707 L 3940 6764 L 3907 6781 C 3889 6791 3825 6815 3765 6835 L 3656 6871 L 3490 6856 C 3296 6837 3277 6837 3285 6850 C 3288 6856 3298 6860 3307 6860 C 3316 6860 3360 6878 3405 6899 C 3536 6963 3603 7054 3586 7145 L 3579 7181 L 3520 7127 C 3384 7001 3199 6925 2933 6885 C 2876 6877 2809 6870 2784 6870 C 2750 6870 2724 6862 2688 6840 C 2654 6819 2627 6810 2597 6810 C 2520 6810 2332 6849 2197 6894 C 2075 6934 1852 7035 1862 7046 C 1865 7048 1891 7045 1921 7038 C 2013 7018 2166 7023 2232 7049 C 2428 7125 2561 7330 2548 7534 C 2542 7623 2516 7684 2454 7750 C 2337 7875 2148 7901 2013 7810 C 1916 7745 1875 7660 1882 7538 C 1885 7481 1890 7465 1916 7433 C 1966 7372 2029 7345 2125 7345 C 2195 7345 2212 7348 2242 7370 C 2296 7406 2314 7444 2314 7522 C 2315 7574 2311 7595 2294 7617 C 2265 7657 2214 7680 2153 7680 C 2093 7680 2070 7673 2070 7655 C 2070 7645 2083 7643 2124 7647 C 2234 7658 2285 7617 2284 7518 C 2283 7448 2263 7415 2207 7389 C 2138 7358 2051 7368 1982 7415 C 1926 7453 1910 7486 1910 7560 C 1910 7726 2036 7838 2213 7828 C 2334 7822 2436 7756 2487 7652 C 2512 7602 2515 7584 2515 7499 C 2515 7407 2514 7401 2473 7318 C 2403 7177 2287 7085 2146 7059 C 2045 7041 1851 7073 1750 7126 C 1684 7160 1661 7185 1564 7321 C 1515 7389 1406 7540 1320 7655 C 1146 7889 1011 8080 1010 8094 C 1009 8099 1033 8111 1062 8121 C 1169 8159 1244 8247 1283 8379 C 1325 8522 1334 8579 1333 8715 C 1332 8879 1312 8953 1200 9192 C 1156 9286 1121 9364 1122 9365 C 1124 9367 1161 9353 1205 9335 C 1343 9278 1564 9231 1699 9230 C 1736 9230 1747 9225 1774 9195 C 1804 9161 1813 9158 2005 9114 C 2355 9034 2499 8976 2610 8873 C 2642 8844 2670 8820 2674 8820 C 2684 8820 2681 8891 2669 8933 C 2650 9001 2562 9067 2415 9122 L 2365 9140 L 2475 9135 C 2536 9132 2605 9125 2630 9120 C 2655 9115 2707 9111 2745 9110 C 2810 9110 2823 9114 2935 9169 L 3055 9228 L 3005 9250 C 2978 9262 2912 9286 2861 9303 L 2766 9334 L 2646 9322 C 2579 9315 2494 9310 2455 9311 L 2385 9311 L 2425 9324 C 2496 9346 2609 9411 2644 9451 C 2684 9494 2705 9558 2695 9607 L 2689 9642 L 2642 9598 C 2479 9446 2244 9360 1921 9334 C 1848 9328 1831 9323 1786 9292 L 1735 9257 L 1619 9269 C 1555 9275 1451 9293 1389 9309 C 1263 9341 1147 9388 1190 9389 C 1232 9391 1479 9459 1522 9481 C 1581 9511 1652 9587 1686 9655 C 1713 9711 1715 9723 1714 9825 C 1714 9915 1710 9946 1691 9995 C 1662 10070 1593 10140 1531 10159 C 1335 10217 1088 10132 1009 9978 C 988 9936 954 9817 944 9748 C 941 9721 934 9700 930 9700 C 910 9700 759 9828 692 9902 C 646 9953 624 10069 640 10171 C 673 10385 809 10637 1106 11030 C 1184 11134 1262 11249 1282 11292 L 1320 11368 L 1392 11380 C 1490 11397 1589 11387 1696 11349 C 1823 11305 1892 11266 1971 11192 C 2023 11144 2049 11110 2077 11052 C 2115 10977 2115 10975 2115 10856 C 2115 10739 2114 10732 2081 10662 C 2039 10573 1956 10491 1884 10466 C 1683 10398 1460 10540 1459 10737 C 1458 10848 1531 10960 1614 10975 C 1692 10990 1808 10937 1850 10867 C 1916 10759 1795 10606 1687 10661 C 1675 10667 1648 10688 1628 10708 C 1607 10728 1587 10741 1584 10737 C 1569 10723 1601 10679 1647 10649 C 1689 10622 1702 10619 1750 10623 C 1799 10627 1808 10631 1846 10673 C 1921 10757 1922 10845 1848 10921 C 1772 10999 1652 11030 1568 10992 C 1486 10956 1426 10849 1427 10739 C 1427 10617 1501 10506 1619 10451 C 1668 10428 1688 10425 1775 10425 C 1861 10425 1882 10428 1925 10450 C 1999 10486 2065 10558 2108 10648 C 2144 10724 2145 10727 2145 10846 L 2145 10968 L 2200 10920 C 2267 10862 2352 10808 2404 10789 C 2425 10781 2454 10760 2469 10741 C 2535 10653 2641 10625 2714 10675 C 2743 10695 2755 10698 2771 10690 C 2789 10680 2789 10677 2758 10639 C 2682 10544 2743 10441 2878 10435 C 2941 10432 2981 10407 3070 10314 C 3105 10278 3134 10251 3136 10253 C 3139 10255 3143 10287 3147 10323 C 3156 10419 3135 10467 3056 10532 C 2990 10587 2978 10606 2992 10633 C 3006 10661 3042 10653 3095 10609 C 3224 10503 3292 10505 3425 10620 C 3458 10648 3507 10684 3533 10699 L 3581 10727 L 3531 10760 C 3503 10777 3462 10814 3439 10841 C 3371 10922 3262 10965 3187 10941 C 3168 10934 3136 10911 3116 10890 C 3094 10866 3070 10850 3056 10850 C 3032 10850 3000 10878 3000 10899 C 3000 10906 3030 10939 3066 10973 C 3145 11047 3170 11092 3170 11159 C 3170 11248 3164 11249 3094 11172 C 3019 11090 2980 11069 2882 11060 C 2795 11051 2759 11030 2746 10978 C 2734 10930 2745 10893 2781 10859 C 2810 10832 2810 10831 2791 10820 C 2774 10811 2763 10815 2726 10844 C 2665 10890 2616 10898 2552 10870 C 2524 10858 2492 10838 2480 10825 C 2458 10802 2457 10801 2416 10817 C 2301 10862 2169 10978 2084 11107 C 2001 11231 1908 11302 1742 11367 L 1655 11401 L 1730 11395 C 1874 11383 2073 11336 2293 11261 C 2409 11221 2550 11206 2720 11213 C 2906 11222 3016 11247 3197 11321 C 3227 11333 3232 11331 3310 11284 C 3498 11171 3694 10888 3795 10585 C 3833 10469 3845 10446 3855 10472 C 3864 10494 3796 10689 3739 10806 C 3712 10862 3663 10947 3631 10996 C 3598 11045 3573 11086 3574 11087 C 3576 11089 3616 11072 3663 11050 C 3818 10979 4016 10917 4215 10879 C 4260 10870 4355 10865 4485 10866 C 4669 10866 4693 10868 4785 10893 C 4840 10908 4918 10936 4958 10955 L 5031 10990 L 5176 10846 L 5321 10701 L 5319 10652 C 5317 10607 5324 10590 5415 10430 C 5528 10230 5600 10081 5625 9995 C 5635 9962 5645 9888 5649 9830 L 5655 9725 L 5697 9767 C 5769 9839 5775 9920 5720 10070 C 5705 10111 5689 10154 5685 10165 C 5674 10197 5733 10126 5815 10010 C 5935 9838 5938 9835 6079 9779 C 6148 9752 6205 9732 6207 9734 C 6213 9740 6154 9887 6118 9958 C 6091 10008 6059 10044 5956 10138 C 5885 10202 5825 10260 5823 10267 C 5821 10273 5848 10263 5882 10245 C 5954 10206 6045 10180 6104 10180 C 6154 10180 6224 10213 6250 10249 L 6269 10277 L 6190 10284 C 6106 10291 5964 10332 5882 10374 C 5797 10417 5658 10515 5560 10602 C 5466 10685 5422 10710 5371 10710 C 5350 10710 5330 10727 5280 10786 C 5244 10828 5202 10874 5185 10887 C 5169 10901 5133 10933 5106 10958 L 5057 11004 L 5081 11019 C 5159 11071 5284 11195 5318 11256 C 5324 11267 5366 11254 5522 11196 C 5872 11064 6000 11026 6470 10919 C 7029 10792 7236 10732 7415 10645 C 7476 10615 7547 10574 7574 10552 L 7624 10514 L 7625 10444 C 7626 10333 7671 10266 7755 10253 C 7777 10250 7798 10242 7802 10236 C 7819 10212 7809 10200 7775 10200 C 7732 10200 7687 10178 7666 10148 C 7633 10101 7656 10007 7711 9960 C 7746 9931 7760 9866 7760 9737 L 7760 9658 L 7808 9692 C 7834 9711 7865 9744 7878 9766 C 7899 9802 7901 9814 7897 9907 C 7892 10012 7897 10030 7932 10030 C 7959 10030 7977 9992 7984 9921 C 7997 9780 8052 9736 8233 9720 C 8297 9715 8361 9705 8375 9698 C 8408 9683 8415 9692 8401 9731 C 8395 9749 8390 9804 8390 9855 C 8390 9957 8375 10013 8334 10067 C 8299 10113 8261 10130 8192 10130 C 8131 10130 8100 10147 8100 10182 C 8100 10215 8130 10225 8234 10225 C 8349 10225 8379 10236 8429 10297 C 8474 10352 8471 10358 8398 10348 C 8283 10331 8193 10357 8131 10424 C 8055 10505 7930 10460 7930 10351 C 7930 10314 7928 10310 7905 10310 C 7882 10310 7880 10314 7880 10353 C 7879 10445 7803 10517 7699 10525 C 7662 10527 7641 10535 7621 10553 C 7518 10648 7295 10746 7016 10819 C 6972 10831 6935 10842 6933 10844 C 6931 10846 7023 10850 7137 10853 C 7363 10859 7472 10876 7610 10925 C 7705 10960 7809 11028 7845 11080 C 7877 11127 7866 11126 8083 11105 L 8242 11090 L 8355 11010 C 8459 10936 8469 10927 8475 10891 C 8482 10849 8509 10820 8660 10691 C 8802 10570 8939 10429 8990 10353 C 9035 10286 9080 10187 9080 10155 C 9080 10119 9103 10134 9126 10185 C 9147 10230 9151 10250 9146 10283 C 9136 10341 9086 10429 9023 10500 C 8993 10533 8973 10560 8979 10560 C 8984 10560 9033 10530 9087 10493 C 9141 10457 9218 10404 9258 10377 L 9331 10327 L 9466 10318 C 9541 10312 9604 10311 9607 10314 C 9625 10332 9445 10522 9378 10556 C 9352 10569 9297 10593 9255 10610 C 9213 10627 9153 10654 9122 10670 C 9065 10700 9065 10700 9105 10693 C 9127 10689 9188 10686 9240 10686 C 9318 10687 9344 10691 9383 10710 C 9435 10735 9474 10778 9486 10824 C 9492 10850 9491 10852 9474 10846 C 9417 10824 9315 10809 9223 10809 C 9058 10810 8926 10839 8718 10922 C 8604 10967 8584 10972 8533 10968 C 8477 10963 8475 10964 8393 11022 C 8313 11079 8296 11094 8323 11085 C 8372 11068 9313 11015 9763 11004 C 10016 10998 10040 10999 10040 11014 C 10040 11023 10039 11030 10038 11030 C 10036 11030 9868 11035 9664 11040 C 9321 11049 8968 11066 8645 11090 C 8403 11108 8225 11124 8240 11127 C 8248 11128 8350 11136 8465 11145 C 9009 11186 9291 11249 9505 11374 C 9588 11423 9636 11482 9645 11544 C 9666 11679 9590 11778 9475 11766 C 9419 11760 9386 11739 9353 11690 C 9326 11651 9324 11624 9346 11571 C 9365 11524 9402 11505 9461 11513 C 9548 11525 9579 11603 9520 11661 C 9488 11693 9470 11694 9423 11664 C 9393 11645 9393 11625 9423 11635 C 9481 11653 9498 11652 9510 11630 C 9526 11600 9515 11566 9485 11552 C 9428 11526 9386 11543 9369 11599 C 9350 11664 9392 11721 9471 11735 C 9527 11745 9573 11721 9599 11668 C 9623 11617 9625 11585 9608 11527 C 9591 11471 9548 11431 9444 11377 C 9216 11260 8959 11211 8316 11165 C 8201 11157 8058 11150 7998 11150 C 7889 11150 7889 11150 7896 11173 C 7938 11303 7923 11424 7853 11527 C 7790 11621 7701 11664 7575 11662 C 7430 11661 7302 11597 7078 11418 C 6874 11255 6913 11268 6724 11296 C 6636 11310 6505 11331 6434 11343 L 6305 11365 L 6296 11426 C 6280 11539 6330 11643 6424 11693 C 6455 11709 6483 11714 6537 11715 C 6600 11715 6613 11712 6651 11685 C 6706 11647 6730 11605 6737 11538 C 6741 11493 6739 11481 6719 11456 C 6692 11422 6627 11391 6582 11390 C 6542 11390 6494 11413 6480 11439 C 6469 11461 6467 11519 6476 11545 C 6486 11570 6537 11592 6578 11588 C 6622 11584 6635 11601 6598 11614 C 6560 11627 6500 11612 6468 11580 C 6444 11556 6440 11544 6440 11496 C 6440 11446 6444 11435 6473 11403 C 6502 11372 6514 11366 6561 11362 C 6673 11353 6770 11424 6770 11515 C 6770 11585 6750 11632 6701 11681 C 6650 11732 6605 11750 6524 11750 C 6461 11750 6361 11703 6326 11657 C 6274 11588 6266 11559 6265 11463 C 6265 11376 6264 11371 6245 11375 C 6234 11378 6169 11391 6100 11406 C 6030 11420 5858 11470 5711 11520 L 5446 11609 L 5449 11668 C 5455 11819 5366 12001 5222 12131 C 5031 12303 4814 12345 4619 12248 C 4563 12220 4403 12084 4414 12073 C 4416 12071 4446 12087 4480 12110 C 4680 12238 4849 12263 5005 12186 C 5156 12111 5286 11921 5325 11718 C 5334 11668 5335 11650 5326 11650 C 5320 11650 5254 11668 5180 11690 C 4632 11854 4025 11989 3640 12035 L 3585 12042 L 3568 12112 C 3535 12247 3427 12381 3303 12442 C 3242 12472 3226 12475 3130 12478 C 3049 12480 3014 12476 2975 12463 Z M 3282 12418 C 3393 12367 3501 12240 3534 12120 C 3544 12086 3549 12056 3547 12054 C 3543 12049 3257 12078 3255 12083 C 3254 12084 3245 12104 3235 12128 C 3202 12205 3127 12248 3046 12236 C 2994 12228 2897 12172 2892 12147 C 2888 12126 2913 12124 2931 12146 C 2954 12175 3024 12203 3072 12204 C 3125 12205 3161 12184 3198 12130 C 3229 12084 3226 12076 3183 12083 C 3162 12087 3049 12092 2931 12096 L 2718 12103 L 2724 12144 C 2739 12242 2821 12355 2912 12401 C 2990 12441 3031 12450 3130 12447 C 3208 12445 3235 12439 3282 12418 Z M 2696 12025 L 2706 11980 L 2596 11987 C 2535 11992 2372 11995 2233 11995 C 2095 11995 1983 11997 1985 11998 C 1998 12012 2337 12050 2555 12063 C 2697 12072 2684 12075 2696 12025 Z M 3168 12053 C 3222 12048 3231 12044 3236 12024 C 3243 11998 3225 11937 3207 11922 C 3199 11916 3155 11919 3080 11931 C 3017 11941 2914 11955 2853 11962 C 2767 11971 2739 11978 2736 11989 C 2733 11998 2728 12020 2725 12039 L 2718 12073 L 2911 12066 C 3018 12063 3133 12057 3168 12053 Z M 3529 12021 C 3552 12020 3552 12019 3548 11940 C 3545 11896 3540 11857 3537 11853 C 3531 11848 3252 11897 3242 11905 C 3241 11906 3247 11923 3255 11943 C 3263 11963 3270 11994 3270 12013 L 3270 12046 L 3388 12034 C 3452 12027 3516 12021 3529 12021 Z M 3769 11985 C 4205 11917 4758 11788 5244 11639 L 5343 11608 L 5337 11522 C 5332 11443 5309 11348 5290 11327 C 5285 11322 5229 11337 5164 11360 C 4837 11476 4440 11604 4145 11689 C 3964 11741 3610 11830 3586 11830 C 3570 11830 3568 11835 3574 11868 C 3577 11888 3580 11929 3580 11958 C 3580 11991 3584 12010 3592 12010 C 3598 12010 3678 11999 3769 11985 Z M 2637 11954 C 2716 11947 2719 11946 2731 11917 C 2751 11868 2791 11829 2845 11804 C 2940 11759 3093 11780 3180 11848 L 3215 11876 L 3360 11848 C 3440 11832 3510 11818 3517 11815 C 3525 11812 3522 11793 3504 11748 C 3464 11646 3399 11541 3329 11466 L 3263 11396 L 3168 11458 C 2978 11580 2787 11666 2592 11715 C 2196 11816 1745 11809 1435 11696 L 1372 11673 L 1365 11719 C 1362 11744 1357 11773 1354 11783 C 1347 11805 1410 11834 1614 11902 C 1759 11950 1768 11952 1909 11957 C 1989 11960 2057 11964 2060 11967 C 2066 11974 2520 11963 2637 11954 Z M 3008 11908 L 3172 11886 L 3145 11864 C 3073 11807 2937 11794 2852 11836 C 2807 11858 2760 11909 2760 11935 C 2760 11943 2765 11942 3008 11908 Z M 3985 11631 C 4405 11416 4742 11213 4944 11051 L 4983 11020 L 4924 10994 C 4678 10885 4291 10871 3955 10960 C 3850 10988 3703 11043 3609 11090 C 3546 11122 3522 11142 3460 11214 C 3420 11261 3384 11300 3381 11300 C 3378 11301 3355 11319 3331 11341 L 3287 11380 L 3327 11415 C 3349 11433 3390 11483 3419 11525 C 3471 11600 3550 11755 3550 11782 C 3550 11807 3559 11808 3638 11788 C 3692 11774 3795 11728 3985 11631 Z M 1334 11714 L 1340 11662 L 1273 11631 C 873 11444 601 11159 480 10802 C 446 10702 440 10724 471 10837 C 570 11206 831 11518 1225 11737 C 1284 11770 1317 11784 1321 11776 C 1325 11770 1330 11742 1334 11714 Z M 4063 11679 C 4396 11586 5172 11335 5248 11296 L 5271 11284 L 5227 11224 C 5179 11158 5117 11101 5054 11064 L 5012 11039 L 4924 11106 C 4724 11258 4404 11452 4070 11624 C 3957 11682 3869 11730 3873 11730 C 3878 11730 3963 11707 4063 11679 Z M 2265 11649 C 2554 11606 2885 11503 3116 11387 C 3181 11354 3183 11352 3161 11340 C 3119 11318 2998 11280 2921 11266 C 2696 11223 2475 11237 2258 11305 C 1963 11399 1801 11430 1607 11431 C 1503 11431 1385 11419 1344 11403 C 1330 11398 1328 11401 1334 11421 C 1338 11434 1347 11478 1356 11519 C 1364 11560 1372 11595 1373 11596 C 1375 11598 1421 11610 1475 11624 C 1577 11649 1686 11667 1775 11674 C 1877 11682 2139 11669 2265 11649 Z M 7730 11598 C 7851 11527 7911 11384 7881 11240 C 7862 11150 7888 11154 7569 11190 C 7413 11207 7207 11231 7111 11243 L 6938 11265 L 7076 11376 C 7347 11592 7431 11632 7595 11627 C 7672 11625 7693 11620 7730 11598 Z M 1314 11474 C 1305 11433 1292 11396 1286 11391 C 1280 11387 1250 11375 1220 11365 C 965 11283 718 11051 614 10796 C 550 10639 537 10573 536 10395 C 535 10220 549 10127 597 9999 C 628 9914 713 9819 844 9720 L 930 9655 L 930 9593 C 930 9558 927 9530 924 9530 C 906 9530 761 9673 703 9747 C 554 9938 472 10135 440 10382 C 429 10460 430 10475 450 10546 C 462 10589 489 10670 510 10725 C 668 11129 911 11399 1247 11546 C 1339 11586 1340 11585 1314 11474 Z M 5698 11491 C 5899 11421 6098 11368 6238 11345 C 6277 11339 6283 11334 6306 11288 C 6338 11226 6408 11154 6463 11130 C 6520 11104 6622 11104 6692 11130 C 6721 11141 6780 11170 6824 11194 L 6902 11239 L 7044 11220 C 7121 11210 7329 11185 7505 11165 C 7681 11145 7829 11128 7833 11127 C 7838 11126 7823 11103 7800 11077 C 7720 10986 7522 10913 7288 10889 C 7217 10882 7095 10879 6956 10883 L 6735 10888 L 6495 10944 C 6171 11020 5999 11064 5883 11101 C 5781 11134 5359 11288 5351 11295 C 5349 11298 5358 11326 5372 11357 C 5398 11416 5410 11452 5430 11528 C 5436 11551 5447 11570 5454 11570 C 5462 11570 5571 11534 5698 11491 Z M 1270 11345 C 1270 11319 1186 11188 1082 11051 C 925 10844 796 10649 726 10511 C 659 10380 634 10310 611 10195 L 594 10105 L 579 10175 C 561 10263 561 10504 579 10584 C 655 10924 874 11190 1186 11320 C 1258 11350 1270 11353 1270 11345 Z M 6555 11291 C 6660 11275 6767 11258 6794 11254 C 6840 11248 6842 11246 6824 11232 C 6814 11224 6772 11202 6732 11183 C 6650 11143 6557 11130 6497 11149 C 6450 11165 6364 11242 6339 11293 L 6318 11333 L 6342 11327 C 6354 11324 6451 11308 6555 11291 Z M 736 11183 C 679 11107 626 11024 573 10925 C 518 10823 510.096 10838.737 571 10943 C 623.543 11032.95 5500.879 10346.078 733 11193 C 649.798 11207.779 789 11252 736 11183 Z M 1510 10108 C 1571 10081 1631 10024 1656 9971 C 1677 9927 1677 9800 1656 9728 C 1648 9699 1626 9653 1608 9626 C 1573 9572 1467 9489 1411 9471 C 1363 9455 1198 9445 1128 9454 L 1073 9461 L 1054 9518 C 1044 9549 1034 9581 1032 9587 C 1030 9595 1044 9593 1073 9580 C 1185 9530 1322 9519 1388 9554 C 1471 9598 1533 9706 1534 9810 C 1535 9889 1514 9931 1452 9975 C 1417 9999 1397 10005 1342 10008 C 1260 10012 1207 9986 1173 9925 C 1127 9843 1152 9752 1230 9720 C 1272 9703 1356 9712 1382 9737 C 1426 9782 1410 9892 1356 9906 C 1321 9914 1267 9907 1262 9893 C 1260 9884 1272 9880 1304 9880 C 1339 9880 1352 9875 1364 9858 C 1387 9826 1384 9793 1355 9765 C 1327 9736 1287 9733 1235 9754 C 1120 9803 1194 9980 1331 9980 C 1437 9980 1517 9895 1506 9795 C 1494 9686 1415 9586 1328 9569 C 1244 9553 1043 9607 1019 9651 C 1014 9662 1009 9722 1009 9784 C 1009 9886 1011 9903 1034 9948 C 1081 10040 1143 10093 1243 10126 C 1308 10148 1442 10138 1510 10108 Z M 1064 9151 C 1129 9051 1184 8940 1212 8855 C 1231 8798 1235 8764 1235 8670 C 1234 8546 1215 8458 1159 8333 C 1121 8246 1027 8150 981 8150 C 968 8150 918 8227 851 8353 L 798 8450 L 850 8497 C 934 8572 973 8672 974 8810 C 974 8923 950 9000 896 9056 C 850 9104 800 9119 749 9101 C 731 9095 715 9092 712 9095 C 710 9097 722 9122 740 9150 C 775 9205 849 9271 919 9313 L 963 9338 L 990 9282 C 1005 9251 1038 9192 1064 9151 Z M 850 9041 C 927 8986 906 8833 793 8638 C 774 8607 755 8578 750 8575 C 740 8569 697 8704 681 8794 C 663 8894 671 9015 698 9042 C 713 9057 771 9068 800 9063 C 814 9060 836 9050 850 9041 Z M 757 8343 C 769 8316 799 8258 824 8213 C 850 8167 866 8130 861 8130 C 856 8130 835 8137 814 8146 C 745 8174 690 8240 690 8295 C 690 8326 715 8390 728 8390 C 732 8390 746 8369 757 8343 Z M 2015 6695 C 2093 6580 2176 6418 2220 6295 C 2237 6245 2269 6127 2291 6032 L 2329 5860 L 2314 5742 C 2272 5415 2188 5136 2040 4827 L 1989 4720 L 1943 4759 C 1919 4781 1883 4804 1864 4810 C 1840 4818 1828 4830 1823 4848 C 1811 4889 1815 5027 1830 5095 C 1844 5164 1903 5340 1950 5455 C 2005 5590 2069 5790 2092 5895 C 2119 6023 2121 6256 2096 6368 C 2062 6520 2001 6674 1922 6804 C 1899 6841 1880 6874 1880 6877 C 1880 6886 1945 6798 2015 6695 Z M 1291 3878 C 1313 3872 1330 3864 1330 3861 C 1330 3857 1309 3834 1283 3808 C 1248 3775 1224 3761 1195 3757 C 1144 3749 1096 3699 1086 3644 C 1080 3615 1064 3590 1022 3548 C 991 3516 963 3490 959 3490 C 949 3490 920 3602 920 3641 C 920 3707 940 3753 990 3801 C 1069 3878 1189 3909 1291 3878 Z M 1420 3770 C 1494 3626 1408 3490 1243 3490 C 1176 3490 1120 3532 1120 3583 C 1120 3598 1241 3720 1256 3720 C 1275 3720 1293 3692 1299 3652 C 1303 3629 1311 3615 1320 3615 C 1350 3615 1320 3731 1288 3743 C 1280 3746 1291 3764 1319 3794 C 1362 3838 1365 3839 1383 3822 C 1394 3813 1410 3789 1420 3770 Z M 1163 3687 C 1121 3648 1109 3646 1134 3681 C 1149 3703 1191 3732 1198 3725 C 1200 3723 1184 3706 1163 3687 Z M 998 3349 C 1025 3307 1083 3231 1126 3179 C 1170 3127 1217 3069 1231 3050 C 1425 2786 1380 2524 1132 2480 C 1075 2469 1055 2470 1000 2484 C 857 2521 765 2618 714 2785 C 700 2830 695 2879 695 2975 C 695 3125 705 3157 793 3264 C 845 3328 942 3431 946 3427 C 947 3426 971 3391 998 3349 Z"/>
    <path d="M101 11593 c-23 -12 -40 -31 -54 -61 -36 -82 -3 -139 133 -225 79 -51 104 -92 119 -195 6 -42 13 -77 15 -79 1 -2 16 48 32 109 36 142 39 252 7 313 -41 76 -143 156 -200 155 -10 0 -33 -8 -52 -17z"/>
    <path d="M10279 11350 c-55 -29 -118 -106 -160 -196 -39 -82 -46 -104 -31 -104 32 1 145 36 185 57 92 51 154 149 145 229 -3 27 -6 29 -53 31 -34 2 -62 -4 -86 -17z"/>
    <path d="M10508 11086 c-49 -13 -122 -38 -164 -56 l-75 -33 48 -30 c288 -180 573 -182 573 -5 0 49 -31 99 -76 122 -60 32 -194 33 -306 2z"/>
    <path d="M85 11091 c-35 -15 -57 -49 -62 -93 -5 -56 20 -98 84 -134 98 -56 143 -125 143 -221 0 -58 15 -35 40 60 44 170 30 256 -57 339 -54 53 -101 68 -148 49z"/>
    <path d="M10070 10960 c0 -28 40 -150 66 -201 29 -59 77 -107 129 -130 61 -28 82 -25 95 15 39 119 -85 276 -258 325 -28 8 -32 7 -32 -9z"/>
    <path d="M3720 10383 c-152 -61 -240 -155 -240 -256 0 -29 47 -41 107 -27 113 25 200 128 237 283 6 23 3 27 -16 27 -13 0 -52 -12 -88 -27z"/>
    <path d="M3900 10407 c0 -15 36 -120 52 -150 47 -92 149 -167 230 -167 50 0 68 9 68 34 0 77 -61 163 -154 215 -61 35 -196 82 -196 68z"/>
    <path d="M3815 10118 c-132 -280 -109 -526 50 -522 155 3 189 181 84 444 -16 41 -43 97 -59 125 l-29 50 -46 -97z"/>
    <path d="M2972 5474 c-45 -16 -140 -70 -182 -104 -31 -25 -23 -31 69 -60 144 -45 297 -4 344 92 19 39 17 43 -33 68 -47 24 -135 26 -198 4z"/>
    <path d="M2691 5228 c-49 -153 -48 -253 6 -335 35 -54 55 -66 82 -47 69 49 88 192 38 298 -27 59 -86 145 -99 146 -3 0 -16 -28 -27 -62z"/>
    <path d="M2900 5195 c0 -3 12 -29 26 -58 106 -209 259 -357 372 -357 78 0 141 81 125 161 -8 41 -74 113 -136 147 -63 36 -184 77 -269 92 -35 6 -75 13 -90 16 -16 3 -28 3 -28 -1z"/>
    <path d="M633 4940 c-66 -27 10 -152 122 -201 56 -25 179 -37 234 -22 l34 9 -51 60 c-92 111 -179 164 -267 163 -27 0 -60 -4 -72 -9z"/>
    <path d="M966 4589 c-84 -78 -120 -148 -120 -234 0 -73 28 -132 60 -127 36 6 89 58 119 117 27 53 30 69 33 182 5 149 2 151 -92 62z"/>
    <path d="M490 4619 c-78 -13 -177 -64 -201 -102 -16 -25 -19 -45 -16 -91 3 -52 8 -63 37 -89 31 -27 37 -29 100 -25 87 5 186 53 287 141 77 66 159 155 151 163 -10 10 -305 13 -358 3z"/>
    <path d="M2597 3440 c-57 -52 -77 -107 -77 -211 0 -79 15 -177 30 -193 13 -14 99 84 130 149 16 33 32 79 35 102 9 54 -16 141 -49 172 l-24 23 -45 -42z"/>
    <path d="M3095 3458 c-92 -33 -205 -140 -301 -285 l-52 -78 42 -3 c50 -4 181 14 256 35 76 21 186 80 215 115 13 16 30 46 36 68 10 33 9 44 -8 77 -37 72 -109 99 -188 71z"/>
    <path d="M207 3033 c-7 -86 -24 -121 -78 -165 -93 -74 -118 -101 -124 -129 -9 -42 2 -84 32 -113 86 -86 253 49 253 204 0 37 -37 178 -63 242 -14 33 -14 33 -20 -39z"/>
    <path d="M2640 2979 c-54 -16 -55 -24 -10 -66 104 -93 191 -136 276 -135 54 1 114 26 114 47 0 42 -56 108 -120 141 -41 21 -205 29 -260 13z"/>
    <path d="M288 2595 c-7 -109 -35 -157 -128 -221 -122 -84 -144 -167 -67 -251 46 -51 127 -38 197 30 101 99 114 196 53 394 -21 68 -41 123 -44 123 -4 0 -9 -34 -11 -75z"/>
    <path d="M2005 798 c31 -104 112 -210 190 -248 43 -21 114 -28 153 -16 28 9 29 45 3 101 -33 73 -124 131 -259 166 -94 24 -95 24 -87 -3z"/>
    <path d="M1823 772 c-141 -72 -218 -165 -211 -255 3 -40 5 -42 38 -45 108 -11 223 93 258 233 22 88 23 105 4 105 -9 0 -50 -17 -89 -38z"/>
    <path d="M1953 553 c-42 -109 -64 -214 -66 -313 -1 -83 3 -102 25 -152 31 -68 70 -93 130 -85 109 15 153 115 117 265 -21 88 -153 342 -178 342 -3 0 -16 -26 -28 -57z"/>
  </g>
</svg>